<svg xmlns="http://www.w3.org/2000/svg" viewBox="0 0 1024 1024" width="1024" height="1024">
  <defs>
    <linearGradient id="bg" x1="0" y1="0" x2="1" y2="1">
      <stop offset="0" stop-color="#3B82F6"/>
      <stop offset="1" stop-color="#1D4ED8"/>
    </linearGradient>
  </defs>
  <rect x="64" y="64" width="896" height="896" rx="200" fill="url(#bg)"/>
  <rect x="300" y="96" width="44" height="150" rx="22" fill="#1E3A8A"/>
  <rect x="680" y="96" width="44" height="150" rx="22" fill="#1E3A8A"/>
  <rect x="180" y="220" width="664" height="640" rx="72" fill="#ffffff"/>
  <rect x="180" y="220" width="664" height="150" rx="72" fill="#1E3A8A"/>
  <rect x="180" y="320" width="664" height="50" fill="#1E3A8A"/>
  <g fill="#BFDBFE">
    <circle cx="300" cy="500" r="30"/>
    <circle cx="430" cy="500" r="30"/>
    <circle cx="560" cy="500" r="30"/>
    <circle cx="690" cy="500" r="30"/>
    <circle cx="300" cy="640" r="30"/>
    <circle cx="430" cy="640" r="30"/>
    <circle cx="690" cy="640" r="30"/>
    <circle cx="300" cy="780" r="30"/>
    <circle cx="430" cy="780" r="30"/>
    <circle cx="560" cy="780" r="30"/>
    <circle cx="690" cy="780" r="30"/>
  </g>
  <circle cx="560" cy="640" r="74" fill="#EF4444"/>
  <text x="560" y="668" font-family="-apple-system, Helvetica, Arial, sans-serif"
        font-size="78" font-weight="700" fill="#ffffff" text-anchor="middle">9</text>
</svg>
